<?xml version="1.0" standalone="no"?>
<!DOCTYPE svg PUBLIC "-//W3C//DTD SVG 20010904//EN"
 "http://www.w3.org/TR/2001/REC-SVG-20010904/DTD/svg10.dtd">
<svg version="1.0" xmlns="http://www.w3.org/2000/svg"
 width="298.000000pt" height="274.000000pt" viewBox="0 0 298.000000 274.000000"
 preserveAspectRatio="xMidYMid meet">

<g transform="translate(0.000000,274.000000) scale(0.100000,-0.100000)"
fill="#000000" stroke="none">
<path d="M302 2618 c-12 -6 -27 -27 -33 -47 -7 -24 -9 -418 -7 -1207 3 -1136
4 -1173 22 -1193 l19 -21 1197 0 1197 0 28 22 c24 18 27 26 22 61 -3 22 -11
45 -17 51 -8 8 -323 12 -1160 14 l-1150 2 0 135 0 134 116 143 c63 79 202 251
309 383 269 333 248 313 320 320 58 6 62 4 139 -42 70 -43 80 -53 97 -97 32
-84 87 -126 168 -126 103 0 164 61 177 176 l7 57 325 366 c178 201 337 379
353 395 l28 29 71 -66 c53 -51 77 -67 99 -67 45 0 57 20 65 105 7 73 0 324
-10 372 -8 42 -36 46 -146 23 -169 -37 -301 -77 -315 -96 -27 -38 -16 -70 44
-123 l57 -51 -20 -22 c-11 -13 -128 -144 -259 -293 -132 -148 -279 -314 -328
-367 -87 -95 -90 -98 -133 -98 -24 0 -59 -7 -78 -17 l-35 -16 -79 48 -80 49 0
46 c0 63 -27 116 -75 148 -33 22 -52 27 -102 27 -69 0 -120 -26 -150 -78 -19
-32 -25 -96 -13 -139 8 -27 1 -37 -495 -666 -23 -28 -45 -52 -49 -52 -5 0 -8
389 -8 864 l0 865 -22 25 c-27 30 -64 39 -96 24z"/>
</g>
</svg>
